<svg version="1.1" viewBox="0.0 0.0 960.0 540.0" fill="none" stroke="none" stroke-linecap="square" stroke-miterlimit="10" xmlns:xlink="http://www.w3.org/1999/xlink" xmlns="http://www.w3.org/2000/svg"><clipPath id="p.0"><path d="m0 0l960.0 0l0 540.0l-960.0 0l0 -540.0z" clip-rule="nonzero"/></clipPath><g clip-path="url(#p.0)"><path fill="#ffffff" d="m0 0l960.0 0l0 540.0l-960.0 0z" fill-rule="evenodd"/><path fill="#000000" fill-opacity="0.0" d="m289.9475 507.28873l0 0c0 -11.515381 9.335022 -20.850403 20.850403 -20.850403l0 0c5.529846 0 10.833221 2.1967163 14.743439 6.1069336c3.9102173 3.9102173 6.1069336 9.213593 6.1069336 14.743469l0 0c0 11.51535 -9.335022 20.850372 -20.850372 20.850372l0 0c-11.515381 0 -20.850403 -9.335022 -20.850403 -20.850372z" fill-rule="evenodd"/><path stroke="#595959" stroke-width="1.0" stroke-linejoin="round" stroke-linecap="butt" d="m289.9475 507.28873l0 0c0 -11.515381 9.335022 -20.850403 20.850403 -20.850403l0 0c5.529846 0 10.833221 2.1967163 14.743439 6.1069336c3.9102173 3.9102173 6.1069336 9.213593 6.1069336 14.743469l0 0c0 11.51535 -9.335022 20.850372 -20.850372 20.850372l0 0c-11.515381 0 -20.850403 -9.335022 -20.850403 -20.850372z" fill-rule="evenodd"/><path fill="#000000" fill-opacity="0.0" d="m398.2651 507.28873l0 0c0 -11.515381 9.335022 -20.850403 20.850372 -20.850403l0 0c5.5298767 0 10.833252 2.1967163 14.743469 6.1069336c3.9101868 3.9102173 6.1069336 9.213593 6.1069336 14.743469l0 0c0 11.51535 -9.3350525 20.850372 -20.850403 20.850372l0 0c-11.51535 0 -20.850372 -9.335022 -20.850372 -20.850372z" fill-rule="evenodd"/><path stroke="#595959" stroke-width="1.0" stroke-linejoin="round" stroke-linecap="butt" d="m398.2651 507.28873l0 0c0 -11.515381 9.335022 -20.850403 20.850372 -20.850403l0 0c5.5298767 0 10.833252 2.1967163 14.743469 6.1069336c3.9101868 3.9102173 6.1069336 9.213593 6.1069336 14.743469l0 0c0 11.51535 -9.3350525 20.850372 -20.850403 20.850372l0 0c-11.51535 0 -20.850372 -9.335022 -20.850372 -20.850372z" fill-rule="evenodd"/><path fill="#000000" fill-opacity="0.0" d="m523.01184 507.28873l0 0c0 -11.515381 9.335022 -20.850403 20.850342 -20.850403l0 0c5.529907 0 10.833252 2.1967163 14.743469 6.1069336c3.9102173 3.9102173 6.1069336 9.213593 6.1069336 14.743469l0 0c0 11.51535 -9.335022 20.850372 -20.850403 20.850372l0 0c-11.51532 0 -20.850342 -9.335022 -20.850342 -20.850372z" fill-rule="evenodd"/><path stroke="#595959" stroke-width="1.0" stroke-linejoin="round" stroke-linecap="butt" d="m523.01184 507.28873l0 0c0 -11.515381 9.335022 -20.850403 20.850342 -20.850403l0 0c5.529907 0 10.833252 2.1967163 14.743469 6.1069336c3.9102173 3.9102173 6.1069336 9.213593 6.1069336 14.743469l0 0c0 11.51535 -9.335022 20.850372 -20.850403 20.850372l0 0c-11.51532 0 -20.850342 -9.335022 -20.850342 -20.850372z" fill-rule="evenodd"/><path fill="#000000" fill-opacity="0.0" d="m628.3504 507.28873l0 0c0 -11.515381 9.335022 -20.850403 20.850403 -20.850403l0 0c5.529846 0 10.833252 2.1967163 14.743408 6.1069336c3.9102173 3.9102173 6.1069946 9.213593 6.1069946 14.743469l0 0c0 11.51535 -9.335083 20.850372 -20.850403 20.850372l0 0c-11.515381 0 -20.850403 -9.335022 -20.850403 -20.850372z" fill-rule="evenodd"/><path stroke="#595959" stroke-width="1.0" stroke-linejoin="round" stroke-linecap="butt" d="m628.3504 507.28873l0 0c0 -11.515381 9.335022 -20.850403 20.850403 -20.850403l0 0c5.529846 0 10.833252 2.1967163 14.743408 6.1069336c3.9102173 3.9102173 6.1069946 9.213593 6.1069946 14.743469l0 0c0 11.51535 -9.335083 20.850372 -20.850403 20.850372l0 0c-11.515381 0 -20.850403 -9.335022 -20.850403 -20.850372z" fill-rule="evenodd"/><path fill="#000000" fill-opacity="0.0" d="m343.94357 436.7823l0 0c0 -3.8385315 3.1117249 -6.9502563 6.9502563 -6.9502563l27.800262 0l0 0c1.8433228 0 3.611145 0.73223877 4.9145813 2.035675c1.3034363 1.3034363 2.035675 3.0712585 2.035675 4.9145813l0 27.800262c0 3.8385315 -3.1117249 6.9502563 -6.9502563 6.9502563l-27.800262 0c-3.8385315 0 -6.9502563 -3.1117249 -6.9502563 -6.9502563z" fill-rule="evenodd"/><path stroke="#000000" stroke-width="1.0" stroke-linejoin="round" stroke-linecap="butt" d="m343.94357 436.7823l0 0c0 -3.8385315 3.1117249 -6.9502563 6.9502563 -6.9502563l27.800262 0l0 0c1.8433228 0 3.611145 0.73223877 4.9145813 2.035675c1.3034363 1.3034363 2.035675 3.0712585 2.035675 4.9145813l0 27.800262c0 3.8385315 -3.1117249 6.9502563 -6.9502563 6.9502563l-27.800262 0c-3.8385315 0 -6.9502563 -3.1117249 -6.9502563 -6.9502563z" fill-rule="evenodd"/><path fill="#000000" fill-opacity="0.0" d="m574.35565 436.7823l0 0c0 -3.8385315 3.1117554 -6.9502563 6.9502563 -6.9502563l27.800232 0l0 0c1.8433228 0 3.611145 0.73223877 4.914612 2.035675c1.3034058 1.3034363 2.0357056 3.0712585 2.0357056 4.9145813l0 27.800262c0 3.8385315 -3.1117554 6.9502563 -6.9503174 6.9502563l-27.800232 0c-3.838501 0 -6.9502563 -3.1117249 -6.9502563 -6.9502563z" fill-rule="evenodd"/><path stroke="#000000" stroke-width="1.0" stroke-linejoin="round" stroke-linecap="butt" d="m574.35565 436.7823l0 0c0 -3.8385315 3.1117554 -6.9502563 6.9502563 -6.9502563l27.800232 0l0 0c1.8433228 0 3.611145 0.73223877 4.914612 2.035675c1.3034058 1.3034363 2.0357056 3.0712585 2.0357056 4.9145813l0 27.800262c0 3.8385315 -3.1117554 6.9502563 -6.9503174 6.9502563l-27.800232 0c-3.838501 0 -6.9502563 -3.1117249 -6.9502563 -6.9502563z" fill-rule="evenodd"/><path fill="#000000" fill-opacity="0.0" d="m396.7756 392.26248l0 0c0 -11.515381 9.335022 -20.850403 20.850372 -20.850403l0 0c5.5298767 0 10.833252 2.1967163 14.743469 6.1069336c3.9101868 3.9102173 6.1069336 9.213593 6.1069336 14.743469l0 0c0 11.51535 -9.3350525 20.850372 -20.850403 20.850372l0 0c-11.51535 0 -20.850372 -9.335022 -20.850372 -20.850372z" fill-rule="evenodd"/><path stroke="#595959" stroke-width="1.0" stroke-linejoin="round" stroke-linecap="butt" d="m396.7756 392.26248l0 0c0 -11.515381 9.335022 -20.850403 20.850372 -20.850403l0 0c5.5298767 0 10.833252 2.1967163 14.743469 6.1069336c3.9101868 3.9102173 6.1069336 9.213593 6.1069336 14.743469l0 0c0 11.51535 -9.3350525 20.850372 -20.850403 20.850372l0 0c-11.51535 0 -20.850372 -9.335022 -20.850372 -20.850372z" fill-rule="evenodd"/><path fill="#000000" fill-opacity="0.0" d="m521.52234 392.26248l0 0c0 -11.515381 9.335022 -20.850403 20.850342 -20.850403l0 0c5.529907 0 10.833252 2.1967163 14.743469 6.1069336c3.9102173 3.9102173 6.1069336 9.213593 6.1069336 14.743469l0 0c0 11.51535 -9.335022 20.850372 -20.850403 20.850372l0 0c-11.51532 0 -20.850342 -9.335022 -20.850342 -20.850372z" fill-rule="evenodd"/><path stroke="#595959" stroke-width="1.0" stroke-linejoin="round" stroke-linecap="butt" d="m521.52234 392.26248l0 0c0 -11.515381 9.335022 -20.850403 20.850342 -20.850403l0 0c5.529907 0 10.833252 2.1967163 14.743469 6.1069336c3.9102173 3.9102173 6.1069336 9.213593 6.1069336 14.743469l0 0c0 11.51535 -9.335022 20.850372 -20.850403 20.850372l0 0c-11.51532 0 -20.850342 -9.335022 -20.850342 -20.850372z" fill-rule="evenodd"/><path fill="#000000" fill-opacity="0.0" d="m396.7756 268.655l0 0c0 -3.8385315 3.1117249 -6.950287 6.9502563 -6.950287l27.800232 0l0 0c1.8433533 0 3.6111755 0.7322693 4.914612 2.0357056c1.3034058 1.3034363 2.035675 3.0712585 2.035675 4.9145813l0 27.800232c0 3.8385315 -3.1117554 6.950287 -6.950287 6.950287l-27.800232 0c-3.8385315 0 -6.9502563 -3.1117554 -6.9502563 -6.950287z" fill-rule="evenodd"/><path stroke="#000000" stroke-width="1.0" stroke-linejoin="round" stroke-linecap="butt" d="m396.7756 268.655l0 0c0 -3.8385315 3.1117249 -6.950287 6.9502563 -6.950287l27.800232 0l0 0c1.8433533 0 3.6111755 0.7322693 4.914612 2.0357056c1.3034058 1.3034363 2.035675 3.0712585 2.035675 4.9145813l0 27.800232c0 3.8385315 -3.1117554 6.950287 -6.950287 6.950287l-27.800232 0c-3.8385315 0 -6.9502563 -3.1117554 -6.9502563 -6.950287z" fill-rule="evenodd"/><path fill="#000000" fill-opacity="0.0" d="m523.01184 269.07364l0 0c0 -3.8385315 3.1116943 -6.950287 6.9502563 -6.950287l27.800232 0l0 0c1.8433228 0 3.611145 0.7322693 4.914612 2.0357056c1.3034058 1.3034058 2.0356445 3.0712585 2.0356445 4.9145813l0 27.800232c0 3.8385315 -3.1117554 6.950287 -6.9502563 6.950287l-27.800232 0c-3.838562 0 -6.9502563 -3.1117554 -6.9502563 -6.950287z" fill-rule="evenodd"/><path stroke="#000000" stroke-width="1.0" stroke-linejoin="round" stroke-linecap="butt" d="m523.01184 269.07364l0 0c0 -3.8385315 3.1116943 -6.950287 6.9502563 -6.950287l27.800232 0l0 0c1.8433228 0 3.611145 0.7322693 4.914612 2.0357056c1.3034058 1.3034058 2.0356445 3.0712585 2.0356445 4.9145813l0 27.800232c0 3.8385315 -3.1117554 6.950287 -6.9502563 6.950287l-27.800232 0c-3.838562 0 -6.9502563 -3.1117554 -6.9502563 -6.950287z" fill-rule="evenodd"/><path fill="#000000" fill-opacity="0.0" d="m289.9462 392.26248l0 0c0 -11.515381 9.335022 -20.850403 20.850403 -20.850403l0 0c5.529846 0 10.833221 2.1967163 14.743439 6.1069336c3.9102173 3.9102173 6.1069336 9.213593 6.1069336 14.743469l0 0c0 11.51535 -9.335022 20.850372 -20.850372 20.850372l0 0c-11.515381 0 -20.850403 -9.335022 -20.850403 -20.850372z" fill-rule="evenodd"/><path stroke="#595959" stroke-width="1.0" stroke-linejoin="round" stroke-linecap="butt" d="m289.9462 392.26248l0 0c0 -11.515381 9.335022 -20.850403 20.850403 -20.850403l0 0c5.529846 0 10.833221 2.1967163 14.743439 6.1069336c3.9102173 3.9102173 6.1069336 9.213593 6.1069336 14.743469l0 0c0 11.51535 -9.335022 20.850372 -20.850372 20.850372l0 0c-11.515381 0 -20.850403 -9.335022 -20.850403 -20.850372z" fill-rule="evenodd"/><path fill="#000000" fill-opacity="0.0" d="m628.3504 392.26248l0 0c0 -11.515381 9.335022 -20.850403 20.850403 -20.850403l0 0c5.529846 0 10.833252 2.1967163 14.743408 6.1069336c3.9102173 3.9102173 6.1069946 9.213593 6.1069946 14.743469l0 0c0 11.51535 -9.335083 20.850372 -20.850403 20.850372l0 0c-11.515381 0 -20.850403 -9.335022 -20.850403 -20.850372z" fill-rule="evenodd"/><path stroke="#595959" stroke-width="1.0" stroke-linejoin="round" stroke-linecap="butt" d="m628.3504 392.26248l0 0c0 -11.515381 9.335022 -20.850403 20.850403 -20.850403l0 0c5.529846 0 10.833252 2.1967163 14.743408 6.1069336c3.9102173 3.9102173 6.1069946 9.213593 6.1069946 14.743469l0 0c0 11.51535 -9.335083 20.850372 -20.850403 20.850372l0 0c-11.515381 0 -20.850403 -9.335022 -20.850403 -20.850372z" fill-rule="evenodd"/><path fill="#000000" fill-opacity="0.0" d="m396.7756 177.49213l0 0c0 -11.51535 9.335022 -20.850388 20.850372 -20.850388l0 0c5.5298767 0 10.833252 2.1967316 14.743469 6.1069336c3.9101868 3.910202 6.1069336 9.213593 6.1069336 14.743454l0 0c0 11.51535 -9.3350525 20.850388 -20.850403 20.850388l0 0c-11.51535 0 -20.850372 -9.335037 -20.850372 -20.850388z" fill-rule="evenodd"/><path stroke="#595959" stroke-width="1.0" stroke-linejoin="round" stroke-linecap="butt" d="m396.7756 177.49213l0 0c0 -11.51535 9.335022 -20.850388 20.850372 -20.850388l0 0c5.5298767 0 10.833252 2.1967316 14.743469 6.1069336c3.9101868 3.910202 6.1069336 9.213593 6.1069336 14.743454l0 0c0 11.51535 -9.3350525 20.850388 -20.850403 20.850388l0 0c-11.51535 0 -20.850372 -9.335037 -20.850372 -20.850388z" fill-rule="evenodd"/><path fill="#000000" fill-opacity="0.0" d="m523.0131 177.90945l0 0c0 -11.515366 9.335022 -20.850403 20.850403 -20.850403l0 0c5.529846 0 10.833252 2.1967316 14.743469 6.106949c3.9101562 3.910202 6.1069336 9.213577 6.1069336 14.743454l0 0c0 11.51535 -9.335083 20.850388 -20.850403 20.850388l0 0c-11.515381 0 -20.850403 -9.335037 -20.850403 -20.850388z" fill-rule="evenodd"/><path stroke="#595959" stroke-width="1.0" stroke-linejoin="round" stroke-linecap="butt" d="m523.0131 177.90945l0 0c0 -11.515366 9.335022 -20.850403 20.850403 -20.850403l0 0c5.529846 0 10.833252 2.1967316 14.743469 6.106949c3.9101562 3.910202 6.1069336 9.213577 6.1069336 14.743454l0 0c0 11.51535 -9.335083 20.850388 -20.850403 20.850388l0 0c-11.515381 0 -20.850403 -9.335037 -20.850403 -20.850388z" fill-rule="evenodd"/><path fill="#000000" fill-opacity="0.0" d="m289.9462 32.711285l0 0c0 -11.515352 9.335022 -20.850391 20.850403 -20.850391l0 0c5.529846 0 10.833221 2.1967316 14.743439 6.1069384c3.9102173 3.9102077 6.1069336 9.213587 6.1069336 14.743454l0 0c0 11.515354 -9.335022 20.850395 -20.850372 20.850395l0 0c-11.515381 0 -20.850403 -9.335041 -20.850403 -20.850395z" fill-rule="evenodd"/><path stroke="#595959" stroke-width="1.0" stroke-linejoin="round" stroke-linecap="butt" d="m289.9462 32.711285l0 0c0 -11.515352 9.335022 -20.850391 20.850403 -20.850391l0 0c5.529846 0 10.833221 2.1967316 14.743439 6.1069384c3.9102173 3.9102077 6.1069336 9.213587 6.1069336 14.743454l0 0c0 11.515354 -9.335022 20.850395 -20.850372 20.850395l0 0c-11.515381 0 -20.850403 -9.335041 -20.850403 -20.850395z" fill-rule="evenodd"/><path fill="#000000" fill-opacity="0.0" d="m628.3504 32.711285l0 0c0 -11.515352 9.335022 -20.850391 20.850403 -20.850391l0 0c5.529846 0 10.833252 2.1967316 14.743408 6.1069384c3.9102173 3.9102077 6.1069946 9.213587 6.1069946 14.743454l0 0c0 11.515354 -9.335083 20.850395 -20.850403 20.850395l0 0c-11.515381 0 -20.850403 -9.335041 -20.850403 -20.850395z" fill-rule="evenodd"/><path stroke="#595959" stroke-width="1.0" stroke-linejoin="round" stroke-linecap="butt" d="m628.3504 32.711285l0 0c0 -11.515352 9.335022 -20.850391 20.850403 -20.850391l0 0c5.529846 0 10.833252 2.1967316 14.743408 6.1069384c3.9102173 3.9102077 6.1069946 9.213587 6.1069946 14.743454l0 0c0 11.515354 -9.335083 20.850395 -20.850403 20.850395l0 0c-11.515381 0 -20.850403 -9.335041 -20.850403 -20.850395z" fill-rule="evenodd"/><path fill="#000000" fill-opacity="0.0" d="m459.1483 85.216675l0 0c0 -3.8385315 3.1117554 -6.9502716 6.950287 -6.9502716l27.800232 0l0 0c1.8433228 0 3.6111755 0.73226166 4.9145813 2.0356903c1.3034363 1.3034286 2.0357056 3.071251 2.0357056 4.9145813l0 27.800247c0 3.8385239 -3.1117554 6.9502716 -6.950287 6.9502716l-27.800232 0c-3.8385315 0 -6.950287 -3.1117477 -6.950287 -6.9502716z" fill-rule="evenodd"/><path stroke="#000000" stroke-width="1.0" stroke-linejoin="round" stroke-linecap="butt" d="m459.1483 85.216675l0 0c0 -3.8385315 3.1117554 -6.9502716 6.950287 -6.9502716l27.800232 0l0 0c1.8433228 0 3.6111755 0.73226166 4.9145813 2.0356903c1.3034363 1.3034286 2.0357056 3.071251 2.0357056 4.9145813l0 27.800247c0 3.8385239 -3.1117554 6.9502716 -6.950287 6.9502716l-27.800232 0c-3.8385315 0 -6.950287 -3.1117477 -6.950287 -6.9502716z" fill-rule="evenodd"/><path fill="#000000" fill-opacity="0.0" d="m396.7756 32.711285l0 0c0 -11.515352 9.335022 -20.850391 20.850372 -20.850391l0 0c5.5298767 0 10.833252 2.1967316 14.743469 6.1069384c3.9101868 3.9102077 6.1069336 9.213587 6.1069336 14.743454l0 0c0 11.515354 -9.3350525 20.850395 -20.850403 20.850395l0 0c-11.51535 0 -20.850372 -9.335041 -20.850372 -20.850395z" fill-rule="evenodd"/><path stroke="#595959" stroke-width="1.0" stroke-linejoin="round" stroke-linecap="butt" d="m396.7756 32.711285l0 0c0 -11.515352 9.335022 -20.850391 20.850372 -20.850391l0 0c5.5298767 0 10.833252 2.1967316 14.743469 6.1069384c3.9101868 3.9102077 6.1069336 9.213587 6.1069336 14.743454l0 0c0 11.515354 -9.3350525 20.850395 -20.850403 20.850395l0 0c-11.51535 0 -20.850372 -9.335041 -20.850372 -20.850395z" fill-rule="evenodd"/><path fill="#000000" fill-opacity="0.0" d="m521.52234 32.711285l0 0c0 -11.515352 9.335022 -20.850391 20.850342 -20.850391l0 0c5.529907 0 10.833252 2.1967316 14.743469 6.1069384c3.9102173 3.9102077 6.1069336 9.213587 6.1069336 14.743454l0 0c0 11.515354 -9.335022 20.850395 -20.850403 20.850395l0 0c-11.51532 0 -20.850342 -9.335041 -20.850342 -20.850395z" fill-rule="evenodd"/><path stroke="#595959" stroke-width="1.0" stroke-linejoin="round" stroke-linecap="butt" d="m521.52234 32.711285l0 0c0 -11.515352 9.335022 -20.850391 20.850342 -20.850391l0 0c5.529907 0 10.833252 2.1967316 14.743469 6.1069384c3.9102173 3.9102077 6.1069336 9.213587 6.1069336 14.743454l0 0c0 11.515354 -9.335022 20.850395 -20.850403 20.850395l0 0c-11.51532 0 -20.850342 -9.335041 -20.850342 -20.850395z" fill-rule="evenodd"/><path fill="#000000" fill-opacity="0.0" d="m325.54135 492.54526l39.24411 -21.007874" fill-rule="evenodd"/><path stroke="#595959" stroke-width="1.0" stroke-linejoin="round" stroke-linecap="butt" d="m325.54135 492.5453l33.954315 -18.176208" fill-rule="evenodd"/><path fill="#595959" stroke="#595959" stroke-width="1.0" stroke-linecap="butt" d="m360.2752 475.8253l3.2213745 -3.597931l-4.780426 0.68551636z" fill-rule="evenodd"/><path fill="#000000" fill-opacity="0.0" d="m404.37204 492.54526l-39.590546 -21.007874" fill-rule="evenodd"/><path stroke="#595959" stroke-width="1.0" stroke-linejoin="round" stroke-linecap="butt" d="m404.37204 492.5453l-34.290466 -18.195496" fill-rule="evenodd"/><path fill="#595959" stroke="#595959" stroke-width="1.0" stroke-linecap="butt" d="m370.85577 472.89072l-4.7829285 -0.6680908l3.234497 3.5861816z" fill-rule="evenodd"/><path fill="#000000" fill-opacity="0.0" d="m558.60565 492.54526l36.59845 -21.007874" fill-rule="evenodd"/><path stroke="#595959" stroke-width="1.0" stroke-linejoin="round" stroke-linecap="butt" d="m558.60565 492.5453l31.394775 -18.020935" fill-rule="evenodd"/><path fill="#595959" stroke="#595959" stroke-width="1.0" stroke-linecap="butt" d="m590.8227 475.95688l3.1135254 -3.6917114l-4.7580566 0.8266907z" fill-rule="evenodd"/><path fill="#000000" fill-opacity="0.0" d="m634.45734 492.54526l-39.24408 -21.007874" fill-rule="evenodd"/><path stroke="#595959" stroke-width="1.0" stroke-linejoin="round" stroke-linecap="butt" d="m634.45734 492.5453l-33.954285 -18.176208" fill-rule="evenodd"/><path fill="#595959" stroke="#595959" stroke-width="1.0" stroke-linecap="butt" d="m601.28253 472.91287l-4.7803955 -0.68551636l3.2213745 3.597931z" fill-rule="evenodd"/><path fill="#000000" fill-opacity="0.0" d="m527.6293 377.519l-110.01578 -74.11023" fill-rule="evenodd"/><path stroke="#595959" stroke-width="1.0" stroke-linejoin="round" stroke-linecap="butt" d="m527.6293 377.51904l-105.03949 -70.75812" fill-rule="evenodd"/><path fill="#595959" stroke="#595959" stroke-width="1.0" stroke-linecap="butt" d="m423.51257 305.39102l-4.6865845 -1.1654968l2.840973 3.905304z" fill-rule="evenodd"/><path fill="#000000" fill-opacity="0.0" d="m432.36945 377.519l111.49603 -73.700775" fill-rule="evenodd"/><path stroke="#595959" stroke-width="1.0" stroke-linejoin="round" stroke-linecap="butt" d="m432.36942 377.51904l106.49075 -70.39221" fill-rule="evenodd"/><path fill="#595959" stroke="#595959" stroke-width="1.0" stroke-linecap="butt" d="m539.771 308.50473l2.874939 -3.880371l-4.696594 1.1245422z" fill-rule="evenodd"/><path fill="#000000" fill-opacity="0.0" d="m364.79398 429.83203l38.078735 -22.834656" fill-rule="evenodd"/><path stroke="#595959" stroke-width="1.0" stroke-linejoin="round" stroke-linecap="butt" d="m364.79398 429.83203l32.933014 -19.748932" fill-rule="evenodd"/><path fill="#595959" stroke="#595959" stroke-width="1.0" stroke-linecap="butt" d="m398.57645 411.49966l3.042511 -3.7504578l-4.7414246 0.9173279z" fill-rule="evenodd"/><path fill="#000000" fill-opacity="0.0" d="m364.79398 429.83203l-39.24411 -22.834656" fill-rule="evenodd"/><path stroke="#595959" stroke-width="1.0" stroke-linejoin="round" stroke-linecap="butt" d="m364.79398 429.83203l-34.058136 -19.817139" fill-rule="evenodd"/><path fill="#595959" stroke="#595959" stroke-width="1.0" stroke-linecap="butt" d="m331.56656 408.58725l-4.753113 -0.8546448l3.0917358 3.709961z" fill-rule="evenodd"/><path fill="#000000" fill-opacity="0.0" d="m595.20605 429.83203l39.24408 -22.834656" fill-rule="evenodd"/><path stroke="#595959" stroke-width="1.0" stroke-linejoin="round" stroke-linecap="butt" d="m595.20605 429.83203l34.058105 -19.817139" fill-rule="evenodd"/><path fill="#595959" stroke="#595959" stroke-width="1.0" stroke-linecap="butt" d="m630.09485 411.44257l3.0917358 -3.709961l-4.753113 0.8546448z" fill-rule="evenodd"/><path fill="#000000" fill-opacity="0.0" d="m595.20605 429.83203l-38.078735 -22.834656" fill-rule="evenodd"/><path stroke="#595959" stroke-width="1.0" stroke-linejoin="round" stroke-linecap="butt" d="m595.20605 429.83203l-32.933044 -19.748932" fill-rule="evenodd"/><path fill="#595959" stroke="#595959" stroke-width="1.0" stroke-linecap="butt" d="m563.1225 408.66653l-4.741455 -0.9173279l3.0424805 3.7504578z" fill-rule="evenodd"/><path fill="#000000" fill-opacity="0.0" d="m310.7966 371.41208l106.834625 -68.0" fill-rule="evenodd"/><path stroke="#595959" stroke-width="1.0" stroke-linejoin="round" stroke-linecap="butt" d="m310.7966 371.41208l101.77295 -64.77826" fill-rule="evenodd"/><path fill="#595959" stroke="#595959" stroke-width="1.0" stroke-linecap="butt" d="m413.45648 308.02722l2.9414673 -3.8301697l-4.715271 1.043335z" fill-rule="evenodd"/><path fill="#000000" fill-opacity="0.0" d="m649.2008 371.41208l-105.35437 -67.590546" fill-rule="evenodd"/><path stroke="#595959" stroke-width="1.0" stroke-linejoin="round" stroke-linecap="butt" d="m649.2008 371.41208l-100.30426 -64.35068" fill-rule="evenodd"/><path fill="#595959" stroke="#595959" stroke-width="1.0" stroke-linecap="butt" d="m549.78845 305.67117l-4.711548 -1.0602417l2.9277344 3.8406982z" fill-rule="evenodd"/><path fill="#000000" fill-opacity="0.0" d="m417.62598 261.7047l0 -63.37007" fill-rule="evenodd"/><path stroke="#595959" stroke-width="1.0" stroke-linejoin="round" stroke-linecap="butt" d="m417.62598 261.7047l0 -57.37007" fill-rule="evenodd"/><path fill="#595959" stroke="#595959" stroke-width="1.0" stroke-linecap="butt" d="m419.2777 204.33464l-1.6517334 -4.538086l-1.6517334 4.538086z" fill-rule="evenodd"/><path fill="#000000" fill-opacity="0.0" d="m417.62598 261.7047l-103.27557 -210.2992" fill-rule="evenodd"/><path stroke="#595959" stroke-width="1.0" stroke-linejoin="round" stroke-linecap="butt" d="m417.62598 261.7047l-100.63077 -204.91357" fill-rule="evenodd"/><path fill="#595959" stroke="#595959" stroke-width="1.0" stroke-linecap="butt" d="m318.4778 56.063046l-3.4830017 -3.3453255l0.51779175 4.801502z" fill-rule="evenodd"/><path fill="#000000" fill-opacity="0.0" d="m543.8622 262.12335l0 -63.37007" fill-rule="evenodd"/><path stroke="#595959" stroke-width="1.0" stroke-linejoin="round" stroke-linecap="butt" d="m543.8622 262.12335l0 -57.37007" fill-rule="evenodd"/><path fill="#595959" stroke="#595959" stroke-width="1.0" stroke-linecap="butt" d="m545.5139 204.75328l-1.6517334 -4.538101l-1.6517334 4.538101z" fill-rule="evenodd"/><path fill="#000000" fill-opacity="0.0" d="m543.8622 262.12335l108.81891 -209.70078" fill-rule="evenodd"/><path stroke="#595959" stroke-width="1.0" stroke-linejoin="round" stroke-linecap="butt" d="m543.8622 262.12335l106.0553 -204.37514" fill-rule="evenodd"/><path fill="#595959" stroke="#595959" stroke-width="1.0" stroke-linecap="butt" d="m651.3836 58.509007l0.6241455 -4.7888374l-3.5563354 3.2672577z" fill-rule="evenodd"/><path fill="#000000" fill-opacity="0.0" d="m432.36945 162.74867l47.62204 -42.771652" fill-rule="evenodd"/><path stroke="#595959" stroke-width="1.0" stroke-linejoin="round" stroke-linecap="butt" d="m432.36942 162.74867l43.158173 -38.762444" fill-rule="evenodd"/><path fill="#595959" stroke="#595959" stroke-width="1.0" stroke-linecap="butt" d="m476.6313 125.21509l2.2725525 -4.261223l-4.47995 1.8035126z" fill-rule="evenodd"/><path fill="#000000" fill-opacity="0.0" d="m529.12006 163.166l-49.13385 -43.21261" fill-rule="evenodd"/><path stroke="#595959" stroke-width="1.0" stroke-linejoin="round" stroke-linecap="butt" d="m529.12006 163.16599l-44.628418 -39.25013" fill-rule="evenodd"/><path fill="#595959" stroke="#595959" stroke-width="1.0" stroke-linecap="butt" d="m485.58246 122.67556l-4.498474 -1.7567139l2.3168335 4.2373047z" fill-rule="evenodd"/><path fill="#000000" fill-opacity="0.0" d="m479.9987 78.2664l-47.62204 -30.80315" fill-rule="evenodd"/><path stroke="#595959" stroke-width="1.0" stroke-linejoin="round" stroke-linecap="butt" d="m479.9987 78.2664l-42.584076 -27.544468" fill-rule="evenodd"/><path fill="#595959" stroke="#595959" stroke-width="1.0" stroke-linecap="butt" d="m438.31168 49.33504l-4.70755 -1.0778084l2.913391 3.851593z" fill-rule="evenodd"/><path fill="#000000" fill-opacity="0.0" d="m479.9987 78.2664l47.62204 -30.80315" fill-rule="evenodd"/><path stroke="#595959" stroke-width="1.0" stroke-linejoin="round" stroke-linecap="butt" d="m479.9987 78.2664l42.584076 -27.544468" fill-rule="evenodd"/><path fill="#595959" stroke="#595959" stroke-width="1.0" stroke-linecap="butt" d="m523.47986 52.108826l2.913391 -3.851593l-4.7075195 1.0778084z" fill-rule="evenodd"/><path fill="#000000" fill-opacity="0.0" d="m296.0425 484.29553l36.59842 0l0 42.015747l-36.59842 0z" fill-rule="evenodd"/><path fill="#000000" d="m308.2769 502.96555q0.453125 0.484375 0.671875 0.953125q0.171875 0.328125 0.546875 1.71875l0.796875 -1.203125q0.328125 -0.4375 0.78125 -0.828125q0.453125 -0.390625 0.796875 -0.546875q0.21875 -0.09375 0.484375 -0.09375q0.390625 0 0.625 0.21875q0.234375 0.203125 0.234375 0.5q0 0.359375 -0.140625 0.484375q-0.25 0.21875 -0.578125 0.21875q-0.203125 0 -0.421875 -0.078125q-0.421875 -0.140625 -0.5625 -0.140625q-0.21875 0 -0.53125 0.25q-0.5625 0.46875 -1.34375 1.828125l0.75 3.140625q0.171875 0.71875 0.28125 0.859375q0.125 0.140625 0.25 0.140625q0.1875 0 0.4375 -0.203125q0.5 -0.421875 0.859375 -1.09375l0.328125 0.15625q-0.578125 1.078125 -1.46875 1.78125q-0.5 0.40625 -0.84375 0.40625q-0.515625 0 -0.8125 -0.578125q-0.1875 -0.34375 -0.796875 -3.0625q-1.40625 2.46875 -2.265625 3.1875q-0.5625 0.453125 -1.078125 0.453125q-0.359375 0 -0.671875 -0.265625q-0.21875 -0.203125 -0.21875 -0.53125q0 -0.3125 0.203125 -0.5q0.203125 -0.203125 0.5 -0.203125q0.28125 0 0.609375 0.28125q0.234375 0.21875 0.375 0.21875q0.109375 0 0.28125 -0.140625q0.421875 -0.359375 1.15625 -1.5q0.75 -1.15625 0.96875 -1.65625q-0.5625 -2.21875 -0.609375 -2.34375q-0.203125 -0.59375 -0.546875 -0.828125q-0.328125 -0.25 -0.984375 -0.25q-0.21875 0 -0.484375 0.015625l0 -0.328125l2.421875 -0.4375z" fill-rule="nonzero"/><path fill="#000000" d="m318.51056 509.8093l-1.953125 6.8124695q-0.171875 0.59375 -0.171875 0.859375q0 0.234375 0.15625 0.359375q0.15625 0.109375 0.734375 0.15625l-0.0625 0.21875l-3.125 0l0.078125 -0.21875q0.5 -0.015625 0.65625 -0.078125q0.25 -0.109375 0.375 -0.296875q0.203125 -0.28125 0.421875 -1.0l1.40625 -4.8905945q0.125 -0.4375 0.140625 -0.515625q0.015625 -0.125 0.015625 -0.234375q0 -0.21875 -0.125 -0.328125q-0.109375 -0.125 -0.3125 -0.125q-0.15625 0 -0.484375 0.078125l-0.078125 -0.21875l2.046875 -0.578125l0.28125 0z" fill-rule="nonzero"/><path fill="#000000" fill-opacity="0.0" d="m403.79474 484.452l36.59842 0l0 42.015717l-36.59842 0z" fill-rule="evenodd"/><path fill="#000000" d="m416.0291 503.12198q0.453125 0.484375 0.671875 0.953125q0.171875 0.328125 0.546875 1.71875l0.796875 -1.203125q0.328125 -0.4375 0.78125 -0.828125q0.453125 -0.390625 0.796875 -0.546875q0.21875 -0.09375 0.484375 -0.09375q0.390625 0 0.625 0.21875q0.234375 0.203125 0.234375 0.5q0 0.359375 -0.140625 0.484375q-0.25 0.21875 -0.578125 0.21875q-0.203125 0 -0.421875 -0.078125q-0.421875 -0.140625 -0.5625 -0.140625q-0.21875 0 -0.53125 0.25q-0.5625 0.46875 -1.34375 1.828125l0.75 3.140625q0.171875 0.71875 0.28125 0.859375q0.125 0.140625 0.25 0.140625q0.1875 0 0.4375 -0.203125q0.5 -0.421875 0.859375 -1.09375l0.328125 0.15625q-0.578125 1.078125 -1.46875 1.78125q-0.5 0.40625 -0.84375 0.40625q-0.515625 0 -0.8125 -0.578125q-0.1875 -0.34375 -0.796875 -3.0625q-1.40625 2.46875 -2.265625 3.1875q-0.5625 0.453125 -1.078125 0.453125q-0.359375 0 -0.671875 -0.265625q-0.21875 -0.203125 -0.21875 -0.53125q0 -0.3125 0.203125 -0.5q0.203125 -0.203125 0.5 -0.203125q0.28125 0 0.609375 0.28125q0.234375 0.21875 0.375 0.21875q0.109375 0 0.28125 -0.140625q0.421875 -0.359375 1.15625 -1.5q0.75 -1.15625 0.96875 -1.65625q-0.5625 -2.21875 -0.609375 -2.34375q-0.203125 -0.59375 -0.546875 -0.828125q-0.328125 -0.25 -0.984375 -0.25q-0.21875 0 -0.484375 0.015625l0 -0.328125l2.421875 -0.4375z" fill-rule="nonzero"/><path fill="#000000" d="m425.37213 518.372l-4.109375 0l0 -0.21875q3.140625 -2.75 4.15625 -4.3125q0.453125 -0.71875 0.453125 -1.515625q0 -0.6406555 -0.390625 -1.0312805q-0.375 -0.390625 -1.0 -0.390625q-0.859375 0 -1.40625 0.8125l-0.21875 -0.09375q0.3125 -0.78125 0.90625 -1.21875q0.59375 -0.4375 1.296875 -0.4375q0.78125 0 1.3125 0.546875q0.53125 0.53125 0.53125 1.296875q0 0.5312805 -0.1875 0.9844055q-0.296875 0.71875 -1.078125 1.59375q-1.1875 1.34375 -3.171875 3.109375l2.0625 0q0.5 0 0.8125 -0.203125q0.328125 -0.21875 0.46875 -0.5625l0.25 0l-0.6875 1.640625z" fill-rule="nonzero"/><path fill="#000000" fill-opacity="0.0" d="m528.6231 485.28925l36.59839 0l0 42.015747l-36.59839 0z" fill-rule="evenodd"/><path fill="#000000" d="m540.8575 503.95926q0.453125 0.484375 0.671875 0.953125q0.171875 0.328125 0.546875 1.71875l0.796875 -1.203125q0.328125 -0.4375 0.78125 -0.828125q0.453125 -0.390625 0.796875 -0.546875q0.21875 -0.09375 0.484375 -0.09375q0.390625 0 0.625 0.21875q0.234375 0.203125 0.234375 0.5q0 0.359375 -0.140625 0.484375q-0.25 0.21875 -0.578125 0.21875q-0.203125 0 -0.421875 -0.078125q-0.421875 -0.140625 -0.5625 -0.140625q-0.21875 0 -0.53125 0.25q-0.5625 0.46875 -1.34375 1.828125l0.75 3.140625q0.171875 0.71875 0.28125 0.859375q0.125 0.140625 0.25 0.140625q0.1875 0 0.4375 -0.203125q0.5 -0.421875 0.859375 -1.09375l0.328125 0.15625q-0.578125 1.078125 -1.46875 1.7812195q-0.5 0.40625 -0.84375 0.40625q-0.515625 0 -0.8125 -0.5780945q-0.1875 -0.34375 -0.796875 -3.0625q-1.40625 2.46875 -2.265625 3.1875q-0.5625 0.45309448 -1.078125 0.45309448q-0.359375 0 -0.671875 -0.265625q-0.21875 -0.20309448 -0.21875 -0.5312195q0 -0.3125 0.203125 -0.5q0.203125 -0.203125 0.5 -0.203125q0.28125 0 0.609375 0.28125q0.234375 0.21875 0.375 0.21875q0.109375 0 0.28125 -0.140625q0.421875 -0.359375 1.15625 -1.5q0.75 -1.15625 0.96875 -1.65625q-0.5625 -2.21875 -0.609375 -2.34375q-0.203125 -0.59375 -0.546875 -0.828125q-0.328125 -0.25 -0.984375 -0.25q-0.21875 0 -0.484375 0.015625l0 -0.328125l2.421875 -0.4375z" fill-rule="nonzero"/><path fill="#000000" d="m547.8099 514.7092l0 -0.171875q1.46875 -0.234375 2.1875 -0.875q0.515625 -0.46875 0.515625 -1.109375q0 -0.46875 -0.296875 -0.7812195q-0.296875 -0.3125 -0.734375 -0.3125q-0.6875 0 -1.203125 0.8437195l-0.234375 -0.078125q0.3125 -0.7030945 0.8125 -1.0624695q0.5 -0.359375 1.078125 -0.359375q0.71875 0 1.15625 0.4375q0.453125 0.421875 0.453125 1.0780945q0 0.5625 -0.421875 1.078125q-0.40625 0.515625 -1.421875 0.921875q0.625 0.25 0.953125 0.75q0.328125 0.484375 0.328125 1.171875q0 0.765625 -0.4375 1.53125q-0.4375 0.75 -1.203125 1.171875q-0.765625 0.40625 -1.609375 0.40625q-0.765625 0 -1.15625 -0.265625q-0.265625 -0.171875 -0.265625 -0.421875q0 -0.21875 0.15625 -0.359375q0.15625 -0.15625 0.390625 -0.15625q0.15625 0 0.3125 0.046875q0.09375 0.03125 0.46875 0.25q0.390625 0.203125 0.59375 0.28125q0.21875 0.0625 0.4375 0.0625q0.546875 0 0.90625 -0.625q0.359375 -0.640625 0.359375 -1.359375q0 -0.578125 -0.25 -1.03125q-0.234375 -0.46875 -0.75 -0.75q-0.515625 -0.28125 -1.125 -0.3125z" fill-rule="nonzero"/><path fill="#000000" fill-opacity="0.0" d="m634.39 485.44568l36.59845 0l0 42.015747l-36.59845 0z" fill-rule="evenodd"/><path fill="#000000" d="m646.6244 504.1157q0.453125 0.484375 0.671875 0.953125q0.171875 0.328125 0.546875 1.71875l0.796875 -1.203125q0.328125 -0.4375 0.78125 -0.828125q0.453125 -0.390625 0.796875 -0.546875q0.21875 -0.09375 0.484375 -0.09375q0.390625 0 0.625 0.21875q0.234375 0.203125 0.234375 0.5q0 0.359375 -0.140625 0.484375q-0.25 0.21875 -0.578125 0.21875q-0.203125 0 -0.421875 -0.078125q-0.421875 -0.140625 -0.5625 -0.140625q-0.21875 0 -0.53125 0.25q-0.5625 0.46875 -1.34375 1.828125l0.75 3.140625q0.171875 0.71875 0.28125 0.859375q0.125 0.140625 0.25 0.140625q0.1875 0 0.4375 -0.203125q0.5 -0.421875 0.859375 -1.09375l0.328125 0.15625q-0.578125 1.078125 -1.46875 1.7812195q-0.5 0.40625 -0.84375 0.40625q-0.515625 0 -0.8125 -0.578125q-0.1875 -0.34371948 -0.796875 -3.0624695q-1.40625 2.46875 -2.265625 3.1874695q-0.5625 0.453125 -1.078125 0.453125q-0.359375 0 -0.671875 -0.265625q-0.21875 -0.203125 -0.21875 -0.5312195q0 -0.3125 0.203125 -0.5q0.203125 -0.203125 0.5 -0.203125q0.28125 0 0.609375 0.28125q0.234375 0.21875 0.375 0.21875q0.109375 0 0.28125 -0.140625q0.421875 -0.359375 1.15625 -1.5q0.75 -1.15625 0.96875 -1.65625q-0.5625 -2.21875 -0.609375 -2.34375q-0.203125 -0.59375 -0.546875 -0.828125q-0.328125 -0.25 -0.984375 -0.25q-0.21875 0 -0.484375 0.015625l0 -0.328125l2.421875 -0.4375z" fill-rule="nonzero"/><path fill="#000000" d="m657.73303 511.13132l-1.578125 5.4218445l0.984375 0l-0.21875 0.75l-1.0 0l-0.640625 2.203125l-0.890625 0l0.640625 -2.203125l-2.96875 0l0.25 -0.859375l4.953125 -5.3124695l0.46875 0zm-1.359375 1.5624695l-3.53125 3.859375l2.421875 0l1.109375 -3.859375z" fill-rule="nonzero"/><path fill="#000000" fill-opacity="0.0" d="m296.0412 9.402637l36.59842 0l0 42.015747l-36.59842 0z" fill-rule="evenodd"/><path fill="#000000" d="m308.27557 28.072634q0.453125 0.484375 0.671875 0.953125q0.171875 0.328125 0.546875 1.71875l0.796875 -1.203125q0.328125 -0.4375 0.78125 -0.828125q0.453125 -0.390625 0.796875 -0.546875q0.21875 -0.09375 0.484375 -0.09375q0.390625 0 0.625 0.21875q0.234375 0.203125 0.234375 0.5q0 0.359375 -0.140625 0.484375q-0.25 0.21875 -0.578125 0.21875q-0.203125 0 -0.421875 -0.078125q-0.421875 -0.140625 -0.5625 -0.140625q-0.21875 0 -0.53125 0.25q-0.5625 0.46875 -1.34375 1.828125l0.75 3.140627q0.171875 0.71875 0.28125 0.859375q0.125 0.140625 0.25 0.140625q0.1875 0 0.4375 -0.203125q0.5 -0.421875 0.859375 -1.09375l0.328125 0.15625q-0.578125 1.078125 -1.46875 1.78125q-0.5 0.40625 -0.84375 0.40625q-0.515625 0 -0.8125 -0.578125q-0.1875 -0.34375 -0.796875 -3.0625q-1.40625 2.46875 -2.265625 3.1875q-0.5625 0.453125 -1.078125 0.453125q-0.359375 0 -0.671875 -0.265625q-0.21875 -0.203125 -0.21875 -0.53125q0 -0.3125 0.203125 -0.5q0.203125 -0.203125 0.5 -0.203125q0.28125 0 0.609375 0.28125q0.234375 0.21875 0.375 0.21875q0.109375 0 0.28125 -0.140625q0.421875 -0.359375 1.15625 -1.5q0.75 -1.15625 0.96875 -1.65625q-0.5625 -2.218752 -0.609375 -2.343752q-0.203125 -0.59375 -0.546875 -0.828125q-0.328125 -0.25 -0.984375 -0.25q-0.21875 0 -0.484375 0.015625l0 -0.328125l2.421875 -0.4375zm4.3645935 -2.1380157l-0.1875 0l-1.546875 -1.84375l-2.90625 1.84375l-0.234375 0l2.828125 -2.890625l1.359375 0l0.6875 2.890625z" fill-rule="nonzero"/><path fill="#000000" d="m318.50925 34.916386l-1.953125 6.8125q-0.171875 0.59375 -0.171875 0.859375q0 0.234375 0.15625 0.359375q0.15625 0.109375 0.734375 0.15625l-0.0625 0.21875l-3.125 0l0.078125 -0.21875q0.5 -0.015625 0.65625 -0.078125q0.25 -0.109375 0.375 -0.296875q0.203125 -0.28125 0.421875 -1.0l1.40625 -4.890625q0.125 -0.4375 0.140625 -0.515625q0.015625 -0.125 0.015625 -0.234375q0 -0.21875 -0.125 -0.328125q-0.109375 -0.125 -0.3125 -0.125q-0.15625 0 -0.484375 0.078125l-0.078125 -0.21875l2.046875 -0.578125l0.28125 0z" fill-rule="nonzero"/><path fill="#000000" fill-opacity="0.0" d="m403.79343 9.559074l36.59842 0l0 42.015747l-36.59842 0z" fill-rule="evenodd"/><path fill="#000000" d="m416.0278 28.229073q0.453125 0.484375 0.671875 0.953125q0.171875 0.328125 0.546875 1.71875l0.796875 -1.203125q0.328125 -0.4375 0.78125 -0.828125q0.453125 -0.390625 0.796875 -0.546875q0.21875 -0.09375 0.484375 -0.09375q0.390625 0 0.625 0.21875q0.234375 0.203125 0.234375 0.5q0 0.359375 -0.140625 0.484375q-0.25 0.21875 -0.578125 0.21875q-0.203125 0 -0.421875 -0.078125q-0.421875 -0.140625 -0.5625 -0.140625q-0.21875 0 -0.53125 0.25q-0.5625 0.46875 -1.34375 1.828125l0.75 3.140625q0.171875 0.71875 0.28125 0.859375q0.125 0.140625 0.25 0.140625q0.1875 0 0.4375 -0.203125q0.5 -0.421875 0.859375 -1.09375l0.328125 0.15625q-0.578125 1.078125 -1.46875 1.78125q-0.5 0.40625 -0.84375 0.40625q-0.515625 0 -0.8125 -0.578125q-0.1875 -0.34375 -0.796875 -3.0625q-1.40625 2.46875 -2.265625 3.1875q-0.5625 0.453125 -1.078125 0.453125q-0.359375 0 -0.671875 -0.265625q-0.21875 -0.203125 -0.21875 -0.53125q0 -0.3125 0.203125 -0.5q0.203125 -0.203125 0.5 -0.203125q0.28125 0 0.609375 0.28125q0.234375 0.21875 0.375 0.21875q0.109375 0 0.28125 -0.140625q0.421875 -0.359375 1.15625 -1.5q0.75 -1.15625 0.96875 -1.65625q-0.5625 -2.21875 -0.609375 -2.34375q-0.203125 -0.59375 -0.546875 -0.828125q-0.328125 -0.25 -0.984375 -0.25q-0.21875 0 -0.484375 0.015625l0 -0.328125l2.421875 -0.4375zm4.364563 -2.1380157l-0.1875 0l-1.546875 -1.84375l-2.90625 1.84375l-0.234375 0l2.828125 -2.890625l1.359375 0l0.6875 2.890625z" fill-rule="nonzero"/><path fill="#000000" d="m425.37082 43.479073l-4.109375 0l0 -0.21875q3.140625 -2.75 4.15625 -4.3125q0.453125 -0.71875 0.453125 -1.515625q0 -0.640625 -0.390625 -1.03125q-0.375 -0.390625 -1.0 -0.390625q-0.859375 0 -1.40625 0.8125l-0.21875 -0.09375q0.3125 -0.78125 0.90625 -1.21875q0.59375 -0.4375 1.296875 -0.4375q0.78125 0 1.3125 0.546875q0.53125 0.53125 0.53125 1.296875q0 0.53125 -0.1875 0.984375q-0.296875 0.71875 -1.078125 1.59375q-1.1875 1.34375 -3.171875 3.109375l2.0625 0q0.5 0 0.8125 -0.203125q0.328125 -0.21875 0.46875 -0.5625l0.25 0l-0.6875 1.640625z" fill-rule="nonzero"/><path fill="#000000" fill-opacity="0.0" d="m528.62177 10.396345l36.59845 0l0 42.015747l-36.59845 0z" fill-rule="evenodd"/><path fill="#000000" d="m540.85614 29.066343q0.453125 0.484375 0.671875 0.953125q0.171875 0.328125 0.546875 1.71875l0.796875 -1.203125q0.328125 -0.4375 0.78125 -0.828125q0.453125 -0.390625 0.796875 -0.546875q0.21875 -0.09375 0.484375 -0.09375q0.390625 0 0.625 0.21875q0.234375 0.203125 0.234375 0.5q0 0.359375 -0.140625 0.484375q-0.25 0.21875 -0.578125 0.21875q-0.203125 0 -0.421875 -0.078125q-0.421875 -0.140625 -0.5625 -0.140625q-0.21875 0 -0.53125 0.25q-0.5625 0.46875 -1.34375 1.8281269l0.75 3.140625q0.171875 0.71875 0.28125 0.859375q0.125 0.140625 0.25 0.140625q0.1875 0 0.4375 -0.203125q0.5 -0.421875 0.859375 -1.09375l0.328125 0.15625q-0.578125 1.078125 -1.46875 1.78125q-0.5 0.40625 -0.84375 0.40625q-0.515625 0 -0.8125 -0.578125q-0.1875 -0.34375 -0.796875 -3.0625q-1.40625 2.46875 -2.265625 3.1875q-0.5625 0.453125 -1.078125 0.453125q-0.359375 0 -0.671875 -0.265625q-0.21875 -0.203125 -0.21875 -0.53125q0 -0.3125 0.203125 -0.5q0.203125 -0.203125 0.5 -0.203125q0.28125 0 0.609375 0.28125q0.234375 0.21875 0.375 0.21875q0.109375 0 0.28125 -0.140625q0.421875 -0.359375 1.15625 -1.5q0.75 -1.15625 0.96875 -1.65625q-0.5625 -2.218752 -0.609375 -2.343752q-0.203125 -0.59375 -0.546875 -0.828125q-0.328125 -0.25 -0.984375 -0.25q-0.21875 0 -0.484375 0.015625l0 -0.328125l2.421875 -0.4375zm4.364563 -2.1380157l-0.1875 0l-1.546875 -1.84375l-2.90625 1.84375l-0.234375 0l2.828125 -2.890625l1.359375 0l0.6875 2.890625z" fill-rule="nonzero"/><path fill="#000000" d="m547.80853 39.816345l0 -0.171875q1.46875 -0.234375 2.1875 -0.875q0.515625 -0.46875 0.515625 -1.109375q0 -0.46875 -0.296875 -0.78125q-0.296875 -0.3125 -0.734375 -0.3125q-0.6875 0 -1.203125 0.84375l-0.234375 -0.078125q0.3125 -0.703125 0.8125 -1.0625q0.5 -0.359375 1.078125 -0.359375q0.71875 0 1.15625 0.4375q0.453125 0.421875 0.453125 1.078125q0 0.5625 -0.421875 1.078125q-0.40625 0.515625 -1.421875 0.921875q0.625 0.25 0.953125 0.75q0.328125 0.484375 0.328125 1.171875q0 0.765625 -0.4375 1.53125q-0.4375 0.75 -1.203125 1.171875q-0.765625 0.40625 -1.609375 0.40625q-0.765625 0 -1.15625 -0.265625q-0.265625 -0.171875 -0.265625 -0.421875q0 -0.21875 0.15625 -0.359375q0.15625 -0.15625 0.390625 -0.15625q0.15625 0 0.3125 0.046875q0.09375 0.03125 0.46875 0.25q0.390625 0.203125 0.59375 0.28125q0.21875 0.0625 0.4375 0.0625q0.546875 0 0.90625 -0.625q0.359375 -0.640625 0.359375 -1.359375q0 -0.578125 -0.25 -1.03125q-0.234375 -0.46875 -0.75 -0.75q-0.515625 -0.28125 -1.125 -0.3125z" fill-rule="nonzero"/><path fill="#000000" fill-opacity="0.0" d="m634.3913 10.395303l36.59845 0l0 42.01575l-36.59845 0z" fill-rule="evenodd"/><path fill="#000000" d="m646.6257 29.065302q0.453125 0.484375 0.671875 0.953125q0.171875 0.328125 0.546875 1.71875l0.796875 -1.203125q0.328125 -0.4375 0.78125 -0.828125q0.453125 -0.390625 0.796875 -0.546875q0.21875 -0.09375 0.484375 -0.09375q0.390625 0 0.625 0.21875q0.234375 0.203125 0.234375 0.5q0 0.359375 -0.140625 0.484375q-0.25 0.21875 -0.578125 0.21875q-0.203125 0 -0.421875 -0.078125q-0.421875 -0.140625 -0.5625 -0.140625q-0.21875 0 -0.53125 0.25q-0.5625 0.46875 -1.34375 1.8281231l0.75 3.140625q0.171875 0.71875 0.28125 0.859375q0.125 0.140625 0.25 0.140625q0.1875 0 0.4375 -0.203125q0.5 -0.421875 0.859375 -1.09375l0.328125 0.15625q-0.578125 1.078125 -1.46875 1.78125q-0.5 0.40625 -0.84375 0.40625q-0.515625 0 -0.8125 -0.578125q-0.1875 -0.34375 -0.796875 -3.0625q-1.40625 2.46875 -2.265625 3.1875q-0.5625 0.453125 -1.078125 0.453125q-0.359375 0 -0.671875 -0.265625q-0.21875 -0.203125 -0.21875 -0.53125q0 -0.3125 0.203125 -0.5q0.203125 -0.203125 0.5 -0.203125q0.28125 0 0.609375 0.28125q0.234375 0.21875 0.375 0.21875q0.109375 0 0.28125 -0.140625q0.421875 -0.359375 1.15625 -1.5q0.75 -1.15625 0.96875 -1.65625q-0.5625 -2.218748 -0.609375 -2.343748q-0.203125 -0.59375 -0.546875 -0.828125q-0.328125 -0.25 -0.984375 -0.25q-0.21875 0 -0.484375 0.015625l0 -0.328125l2.421875 -0.4375zm4.364624 -2.1380157l-0.1875 0l-1.546875 -1.84375l-2.90625 1.84375l-0.234375 0l2.828125 -2.890625l1.359375 0l0.6875 2.890625z" fill-rule="nonzero"/><path fill="#000000" d="m657.7344 36.080925l-1.578125 5.421875l0.984375 0l-0.21875 0.75l-1.0 0l-0.640625 2.203125l-0.890625 0l0.640625 -2.203125l-2.96875 0l0.25 -0.859375l4.953125 -5.3125l0.46875 0zm-1.359375 1.5625l-3.53125 3.859375l2.421875 0l1.109375 -3.859375z" fill-rule="nonzero"/><path fill="#000000" fill-opacity="0.0" d="m347.48923 428.68085l36.59842 0l0 42.015747l-36.59842 0z" fill-rule="evenodd"/><path fill="#000000" d="m356.61423 455.8821l1.015625 -4.578125l0.3125 0q-0.0625 0.65625 -0.0625 1.09375q0 1.25 0.796875 2.046875q0.796875 0.78125 2.078125 0.78125q1.203125 0 1.8125 -0.734375q0.625 -0.734375 0.625 -1.703125q0 -0.609375 -0.28125 -1.125q-0.421875 -0.75 -2.28125 -2.65625q-0.90625 -0.90625 -1.15625 -1.359375q-0.421875 -0.734375 -0.421875 -1.546875q0 -1.296875 0.953125 -2.21875q0.96875 -0.921875 2.484375 -0.921875q0.515625 0 0.96875 0.109375q0.28125 0.046875 1.03125 0.359375q0.53125 0.21875 0.578125 0.234375q0.125 0.015625 0.28125 0.015625q0.265625 0 0.453125 -0.125q0.203125 -0.140625 0.453125 -0.59375l0.34375 0l-0.9375 4.109375l-0.3125 0q0.03125 -0.546875 0.03125 -0.890625q0 -1.09375 -0.734375 -1.796875q-0.71875 -0.703125 -1.921875 -0.703125q-0.9375 0 -1.53125 0.5625q-0.59375 0.546875 -0.59375 1.28125q0 0.625 0.375 1.203125q0.375 0.578125 1.734375 1.890625q1.375 1.3125 1.765625 2.046875q0.40625 0.734375 0.40625 1.5625q0 0.9375 -0.5 1.8125q-0.5 0.875 -1.4375 1.359375q-0.921875 0.484375 -2.015625 0.484375q-0.546875 0 -1.03125 -0.109375q-0.46875 -0.09375 -1.5 -0.484375q-0.359375 -0.140625 -0.59375 -0.140625q-0.53125 0 -0.84375 0.734375l-0.34375 0z" fill-rule="nonzero"/><path fill="#000000" d="m371.00485 454.1946l-1.953125 6.8125q-0.171875 0.59375 -0.171875 0.859375q0 0.234375 0.15625 0.359375q0.15625 0.109375 0.734375 0.15625l-0.0625 0.21875l-3.125 0l0.078125 -0.21875q0.5 -0.015625 0.65625 -0.078125q0.25 -0.109375 0.375 -0.296875q0.203125 -0.28125 0.421875 -1.0l1.40625 -4.890625q0.125 -0.4375 0.140625 -0.515625q0.015625 -0.125 0.015625 -0.234375q0 -0.21875 -0.125 -0.328125q-0.109375 -0.125 -0.3125 -0.125q-0.15625 0 -0.484375 0.078125l-0.078125 -0.21875l2.046875 -0.578125l0.28125 0z" fill-rule="nonzero"/><path fill="#000000" fill-opacity="0.0" d="m577.9013 428.68085l36.59845 0l0 42.015747l-36.59845 0z" fill-rule="evenodd"/><path fill="#000000" d="m587.0263 455.8821l1.015625 -4.578125l0.3125 0q-0.0625 0.65625 -0.0625 1.09375q0 1.25 0.796875 2.046875q0.796875 0.78125 2.078125 0.78125q1.203125 0 1.8125 -0.734375q0.625 -0.734375 0.625 -1.703125q0 -0.609375 -0.28125 -1.125q-0.421875 -0.75 -2.28125 -2.65625q-0.90625 -0.90625 -1.15625 -1.359375q-0.421875 -0.734375 -0.421875 -1.546875q0 -1.296875 0.953125 -2.21875q0.96875 -0.921875 2.484375 -0.921875q0.515625 0 0.96875 0.109375q0.28125 0.046875 1.03125 0.359375q0.53125 0.21875 0.578125 0.234375q0.125 0.015625 0.28125 0.015625q0.265625 0 0.453125 -0.125q0.203125 -0.140625 0.453125 -0.59375l0.34375 0l-0.9375 4.109375l-0.3125 0q0.03125 -0.546875 0.03125 -0.890625q0 -1.09375 -0.734375 -1.796875q-0.71875 -0.703125 -1.921875 -0.703125q-0.9375 0 -1.53125 0.5625q-0.59375 0.546875 -0.59375 1.28125q0 0.625 0.375 1.203125q0.375 0.578125 1.734375 1.890625q1.375 1.3125 1.765625 2.046875q0.40625 0.734375 0.40625 1.5625q0 0.9375 -0.5 1.8125q-0.5 0.875 -1.4375 1.359375q-0.921875 0.484375 -2.015625 0.484375q-0.546875 0 -1.03125 -0.109375q-0.46875 -0.09375 -1.5 -0.484375q-0.359375 -0.140625 -0.59375 -0.140625q-0.53125 0 -0.84375 0.734375l-0.34375 0z" fill-rule="nonzero"/><path fill="#000000" d="m600.5263 462.60086l-4.109375 0l0 -0.21875q3.140625 -2.75 4.15625 -4.3125q0.453125 -0.71875 0.453125 -1.515625q0 -0.640625 -0.390625 -1.03125q-0.375 -0.390625 -1.0 -0.390625q-0.859375 0 -1.40625 0.8125l-0.21875 -0.09375q0.3125 -0.78125 0.90625 -1.21875q0.59375 -0.4375 1.296875 -0.4375q0.78125 0 1.3125 0.546875q0.53125 0.53125 0.53125 1.296875q0 0.53125 -0.1875 0.984375q-0.296875 0.71875 -1.078125 1.59375q-1.1875 1.34375 -3.171875 3.109375l2.0625 0q0.5 0 0.8125 -0.203125q0.328125 -0.21875 0.46875 -0.5625l0.25 0l-0.6875 1.640625z" fill-rule="nonzero"/><path fill="#000000" fill-opacity="0.0" d="m400.32047 259.31418l36.59842 0l0 42.015747l-36.59842 0z" fill-rule="evenodd"/><path fill="#000000" d="m409.44547 286.51544l1.015625 -4.578125l0.3125 0q-0.0625 0.65625 -0.0625 1.09375q0 1.25 0.796875 2.046875q0.796875 0.78125 2.078125 0.78125q1.203125 0 1.8125 -0.734375q0.625 -0.734375 0.625 -1.703125q0 -0.609375 -0.28125 -1.125q-0.421875 -0.75 -2.28125 -2.65625q-0.90625 -0.90625 -1.15625 -1.359375q-0.421875 -0.734375 -0.421875 -1.546875q0 -1.296875 0.953125 -2.21875q0.96875 -0.921875 2.484375 -0.921875q0.515625 0 0.96875 0.109375q0.28125 0.046875 1.03125 0.359375q0.53125 0.21875 0.578125 0.234375q0.125 0.015625 0.28125 0.015625q0.265625 0 0.453125 -0.125q0.203125 -0.140625 0.453125 -0.59375l0.34375 0l-0.9375 4.109375l-0.3125 0q0.03125 -0.546875 0.03125 -0.890625q0 -1.09375 -0.734375 -1.796875q-0.71875 -0.703125 -1.921875 -0.703125q-0.9375 0 -1.53125 0.5625q-0.59375 0.546875 -0.59375 1.28125q0 0.625 0.375 1.203125q0.375 0.578125 1.734375 1.890625q1.375 1.3125 1.765625 2.046875q0.40625 0.734375 0.40625 1.5625q0 0.9375 -0.5 1.8125q-0.5 0.875 -1.4375 1.359375q-0.921875 0.484375 -2.015625 0.484375q-0.546875 0 -1.03125 -0.109375q-0.46875 -0.09375 -1.5 -0.484375q-0.359375 -0.140625 -0.59375 -0.140625q-0.53125 0 -0.84375 0.734375l-0.34375 0z" fill-rule="nonzero"/><path fill="#000000" d="m420.55484 288.7342l0 -0.171875q1.46875 -0.234375 2.1875 -0.875q0.515625 -0.46875 0.515625 -1.109375q0 -0.46875 -0.296875 -0.78125q-0.296875 -0.3125 -0.734375 -0.3125q-0.6875 0 -1.203125 0.84375l-0.234375 -0.078125q0.3125 -0.703125 0.8125 -1.0625q0.5 -0.359375 1.078125 -0.359375q0.71875 0 1.15625 0.4375q0.453125 0.421875 0.453125 1.078125q0 0.5625 -0.421875 1.078125q-0.40625 0.515625 -1.421875 0.921875q0.625 0.25 0.953125 0.75q0.328125 0.484375 0.328125 1.171875q0 0.765625 -0.4375 1.53125q-0.4375 0.75 -1.203125 1.171875q-0.765625 0.40625 -1.609375 0.40625q-0.765625 0 -1.15625 -0.265625q-0.265625 -0.171875 -0.265625 -0.421875q0 -0.21875 0.15625 -0.359375q0.15625 -0.15625 0.390625 -0.15625q0.15625 0 0.3125 0.046875q0.09375 0.03125 0.46875 0.25q0.390625 0.203125 0.59375 0.28125q0.21875 0.0625 0.4375 0.0625q0.546875 0 0.90625 -0.625q0.359375 -0.640625 0.359375 -1.359375q0 -0.578125 -0.25 -1.03125q-0.234375 -0.46875 -0.75 -0.75q-0.515625 -0.28125 -1.125 -0.3125z" fill-rule="nonzero"/><path fill="#000000" fill-opacity="0.0" d="m526.5567 259.73282l36.59839 0l0 42.015747l-36.59839 0z" fill-rule="evenodd"/><path fill="#000000" d="m535.6817 286.93408l1.015625 -4.578125l0.3125 0q-0.0625 0.65625 -0.0625 1.09375q0 1.25 0.796875 2.046875q0.796875 0.78125 2.078125 0.78125q1.203125 0 1.8125 -0.734375q0.625 -0.734375 0.625 -1.703125q0 -0.609375 -0.28125 -1.125q-0.421875 -0.75 -2.28125 -2.65625q-0.90625 -0.90625 -1.15625 -1.359375q-0.421875 -0.734375 -0.421875 -1.546875q0 -1.296875 0.953125 -2.21875q0.96875 -0.921875 2.484375 -0.921875q0.515625 0 0.96875 0.109375q0.28125 0.046875 1.03125 0.359375q0.53125 0.21875 0.578125 0.234375q0.125 0.015625 0.28125 0.015625q0.265625 0 0.453125 -0.125q0.203125 -0.140625 0.453125 -0.59375l0.34375 0l-0.9375 4.109375l-0.3125 0q0.03125 -0.546875 0.03125 -0.890625q0 -1.09375 -0.734375 -1.796875q-0.71875 -0.703125 -1.921875 -0.703125q-0.9375 0 -1.53125 0.5625q-0.59375 0.546875 -0.59375 1.28125q0 0.625 0.375 1.203125q0.375 0.578125 1.734375 1.890625q1.375 1.3125 1.765625 2.046875q0.40625 0.734375 0.40625 1.5625q0 0.9375 -0.5 1.8125q-0.5 0.875 -1.4375 1.359375q-0.921875 0.484375 -2.015625 0.484375q-0.546875 0 -1.03125 -0.109375q-0.46875 -0.09375 -1.5 -0.484375q-0.359375 -0.140625 -0.59375 -0.140625q-0.53125 0 -0.84375 0.734375l-0.34375 0z" fill-rule="nonzero"/><path fill="#000000" d="m550.9473 285.41846l-1.578125 5.421875l0.984375 0l-0.21875 0.75l-1.0 0l-0.640625 2.203125l-0.890625 0l0.640625 -2.203125l-2.96875 0l0.25 -0.859375l4.953125 -5.3125l0.46875 0zm-1.359375 1.5625l-3.53125 3.859375l2.421875 0l1.109375 -3.859375z" fill-rule="nonzero"/><path fill="#000000" fill-opacity="0.0" d="m462.6937 76.52598l36.59842 0l0 42.015747l-36.59842 0z" fill-rule="evenodd"/><path fill="#000000" d="m471.8187 103.72723l1.015625 -4.578125l0.3125 0q-0.0625 0.65625 -0.0625 1.09375q0 1.25 0.796875 2.046875q0.796875 0.78125 2.078125 0.78125q1.203125 0 1.8125 -0.734375q0.625 -0.734375 0.625 -1.703125q0 -0.609375 -0.28125 -1.125q-0.421875 -0.75 -2.28125 -2.65625q-0.90625 -0.90625 -1.15625 -1.359375q-0.421875 -0.734375 -0.421875 -1.546875q0 -1.296875 0.953125 -2.21875q0.96875 -0.921875 2.484375 -0.921875q0.515625 0 0.96875 0.109375q0.28125 0.046875 1.03125 0.359375q0.53125 0.21875 0.578125 0.234375q0.125 0.015625 0.28125 0.015625q0.265625 0 0.453125 -0.125q0.203125 -0.140625 0.453125 -0.59375l0.34375 0l-0.9375 4.109375l-0.3125 0q0.03125 -0.546875 0.03125 -0.890625q0 -1.09375 -0.734375 -1.796875q-0.71875 -0.703125 -1.921875 -0.703125q-0.9375 0 -1.53125 0.5625q-0.59375 0.546875 -0.59375 1.28125q0 0.625 0.375 1.203125q0.375 0.578125 1.734375 1.890625q1.375 1.3125 1.765625 2.046875q0.40625 0.734375 0.40625 1.5625q0 0.9375 -0.5 1.8125q-0.5 0.875 -1.4375 1.359375q-0.921875 0.484375 -2.015625 0.484375q-0.546875 0 -1.03125 -0.109375q-0.46875 -0.09375 -1.5 -0.484375q-0.359375 -0.140625 -0.59375 -0.140625q-0.53125 0 -0.84375 0.734375l-0.34375 0z" fill-rule="nonzero"/><path fill="#000000" d="m484.22495 102.2116l2.75 0l-0.28125 1.0l-2.46875 0l-0.453125 1.015625q0.984375 0.15625 1.53125 0.609375q0.84375 0.71875 0.84375 1.984375q0 0.84375 -0.3125 1.53125q-0.3125 0.6875 -0.765625 1.15625q-0.453125 0.453125 -0.96875 0.71875q-0.703125 0.359375 -1.421875 0.359375q-0.609375 0 -0.96875 -0.265625q-0.25 -0.171875 -0.25 -0.453125q0 -0.21875 0.15625 -0.375q0.171875 -0.15625 0.390625 -0.15625q0.328125 0 0.71875 0.3125q0.25 0.203125 0.40625 0.28125q0.125 0.046875 0.296875 0.046875q0.6875 0 1.265625 -0.671875q0.578125 -0.6875 0.578125 -1.78125q0 -0.765625 -0.3125 -1.296875q-0.296875 -0.53125 -0.78125 -0.75q-0.46875 -0.21875 -1.25 -0.3125l1.296875 -2.953125z" fill-rule="nonzero"/></g></svg>